<svg xmlns="http://www.w3.org/2000/svg" viewBox="0 0 200 240">
  <g fill="#161616">
    <circle cx="60" cy="70" r="34"/><circle cx="100" cy="52" r="38"/><circle cx="142" cy="68" r="34"/>
    <circle cx="160" cy="104" r="26"/><circle cx="40" cy="106" r="26"/><circle cx="70" cy="120" r="30"/>
    <circle cx="128" cy="118" r="30"/><circle cx="100" cy="110" r="34"/>
  </g>
  <path d="M120 130 Q122 158 100 166 L100 178" fill="none" stroke="#161616" stroke-width="28" stroke-linecap="round"/>
  <g fill="none" stroke="#FFFFFF" stroke-width="5" stroke-linecap="round">
    <path d="M100 30 Q92 50 102 66 Q112 84 100 100"/><path d="M56 52 Q72 60 66 78"/>
    <path d="M138 46 Q128 62 144 74"/><path d="M44 100 Q60 96 64 112"/>
    <path d="M150 96 Q136 104 140 120"/><path d="M84 122 Q100 132 116 124"/>
  </g>
  <circle cx="100" cy="220" r="15" fill="#161616"/>
</svg>
